<?xml version="1.0" encoding="UTF-8" standalone="no"?>
<svg
   width="40"
   height="60"
   fill="currentColor"
   class="bi bi-train-front"
   viewBox="0 0 40 60"
   version="1.1"
   id="svg4"
   sodipodi:docname="icon.svg"
   inkscape:version="1.2.2 (732a01da63, 2022-12-09)"
   xmlns:inkscape="http://www.inkscape.org/namespaces/inkscape"
   xmlns:sodipodi="http://sodipodi.sourceforge.net/DTD/sodipodi-0.dtd"
   xmlns="http://www.w3.org/2000/svg"
   xmlns:svg="http://www.w3.org/2000/svg">
  <defs
     id="defs8" />
  <sodipodi:namedview
     id="namedview6"
     pagecolor="#505050"
     bordercolor="#eeeeee"
     borderopacity="1"
     inkscape:showpageshadow="0"
     inkscape:pageopacity="0"
     inkscape:pagecheckerboard="0"
     inkscape:deskcolor="#505050"
     showgrid="false"
     inkscape:zoom="8"
     inkscape:cx="19.5"
     inkscape:cy="31.0625"
     inkscape:window-width="1920"
     inkscape:window-height="991"
     inkscape:window-x="-9"
     inkscape:window-y="-9"
     inkscape:window-maximized="1"
     inkscape:current-layer="svg4" />
  <path
     id="path3233"
     style="fill:#007bff;fill-opacity:1;stroke:none;stroke-width:34.5691;stroke-opacity:1"
     d="M 20,0 C 0,0 0,0 0,20 0,40 20,60 20,60 20,60 40,40 40,20 40,0 40,0 20,0 Z"
     sodipodi:nodetypes="zzczz" />
  <path
     d="m 15.147534,6.7357586 c 3.70207,-0.9260272 6.002861,-0.9260272 9.704931,0 1.599135,0.3997833 3.555206,1.3727238 5.154341,2.2824339 1.403323,0.795485 2.231439,2.3415855 2.231439,4.0365825 v 18.188078 a 3.0595622,3.0595622 0 0 1 -3.059556,3.059563 H 10.821313 A 3.0595622,3.0595622 0 0 1 7.761751,31.242853 V 13.054775 c 0,-1.694997 0.82812,-3.2390568 2.23144,-4.0386232 1.599131,-0.9076694 3.557251,-1.8806099 5.154343,-2.2803932 M 25.346078,4.7572422 c -4.026387,-1.0096563 -6.665769,-1.0096563 -10.690114,0 C 12.771273,5.2263743 10.613263,6.3196582 8.985576,7.2456855 6.8765169,8.4429946 5.722042,10.707071 5.722042,13.052735 v 18.190118 a 5.0992703,5.0992703 0 0 0 5.099271,5.09927 h 18.357376 a 5.0992703,5.0992703 0 0 0 5.099269,-5.09927 V 13.054775 c 0,-2.345664 -1.152436,-4.6097409 -3.26353,-5.811129 C 29.388774,6.3196582 27.230766,5.2284138 25.346078,4.7552014 Z M 13.880875,30.222998 a 2.0397081,2.0397081 0 1 1 -4.079416,0 2.0397081,2.0397081 0 0 1 4.079416,0 m 0,0 a 2.039709,2.039709 0 1 1 4.079418,0 2.039709,2.039709 0 0 1 -4.079418,0 m 14.277958,2.039709 a 2.0397081,2.0397081 0 1 0 -2.039712,-2.039709 2.0397081,2.0397081 0 1 0 -4.079412,0 2.0397081,2.0397081 0 0 0 4.079412,0 2.0397081,2.0397081 0 0 0 2.039712,2.039709 M 12.86102,13.905334 a 1.019854,1.019854 0 0 0 -1.019853,1.019853 v 4.079417 a 1.019854,1.019854 0 0 0 1.019853,1.019854 h 6.119126 v -6.119124 z m 8.158834,0 v 6.119124 h 6.119123 a 1.019854,1.019854 0 0 0 1.019856,-1.019854 V 14.925187 A 1.019854,1.019854 0 0 0 27.138977,13.905334 Z M 9.801459,14.925187 a 3.0595622,3.0595622 0 0 1 3.059561,-3.059562 h 14.277957 a 3.0595622,3.0595622 0 0 1 3.059569,3.059562 v 4.079417 a 3.0595622,3.0595622 0 0 1 -3.059569,3.059562 H 12.86102 A 3.0595622,3.0595622 0 0 1 9.801459,19.004604 Z m 7.138979,-7.1389786 a 1.0198543,1.0198543 0 0 0 0,2.0397086 h 6.119124 a 1.0198543,1.0198543 0 0 0 0,-2.0397086 z"
     id="path2"
     style="fill:#ffffff;fill-opacity:1;stroke:none;stroke-width:2.03971;stroke-opacity:1" />
</svg>
